<svg xmlns="http://www.w3.org/2000/svg" viewBox="0 0 390 844" width="390" height="844" role="img" aria-label="ChatSwift Aurora Glass design preview">
  <defs>
    <filter id="soft" x="-50%" y="-50%" width="200%" height="200%"><feGaussianBlur stdDeviation="55"/></filter>
    
    <clipPath id="scr"><rect width="390" height="844" rx="0"/></clipPath>
  </defs>
  <g clip-path="url(#scr)">
    <rect width="390" height="844" fill="#0b1024"/><g filter="url(#soft)"><ellipse cx="70" cy="150" rx="170" ry="150" fill="#7c4dff" opacity=".75"/><ellipse cx="330" cy="330" rx="160" ry="140" fill="#00bfa6" opacity=".6"/><ellipse cx="180" cy="700" rx="200" ry="160" fill="#ff4dd8" opacity=".45"/></g>
    <g><rect x="0" y="0" width="390" height="176" rx="0" fill="rgba(255,255,255,.13)" opacity=".97"/>
  <rect x="0" y="175" width="390" height="1" fill="rgba(255,255,255,.28)"/>
  <text x="24" y="46" font-family="Outfit,Segoe UI,sans-serif" font-size="12.5" fill="rgba(244,242,255,.72)">9:41</text>
  <g transform="translate(300,36)" fill="rgba(244,242,255,.72)"><rect x="0" y="4" width="3" height="7" rx="1"/><rect x="5" y="1" width="3" height="10" rx="1"/><rect x="10" y="-2" width="3" height="13" rx="1"/>
   <path d="M22 2a9 9 0 0 1 12 0" stroke="rgba(244,242,255,.72)" stroke-width="2" fill="none" stroke-linecap="round"/><circle cx="28" cy="8" r="2"/>
   <rect x="44" y="0" width="20" height="11" rx="3" stroke="rgba(244,242,255,.72)" stroke-width="1.5" fill="none"/><rect x="46" y="2.5" width="13" height="6" rx="1.5"/></g>
  <path d="M32 108l-11-11 11-11" stroke="#f4f2ff" stroke-width="2.2" fill="none" stroke-linecap="round" stroke-linejoin="round"/>
  <circle cx="70" cy="97" r="21" fill="#c9b6ff" opacity=".9"/>
  <text x="70" y="103" text-anchor="middle" font-family="Outfit,Segoe UI,sans-serif" font-size="17" font-weight="700" fill="#0a0a12">A</text>
  <text x="102" y="93" font-family="Outfit,Segoe UI,sans-serif" font-size="16.5" font-weight="600" fill="#f4f2ff">@ayesha</text>
  <circle cx="107" cy="112" r="3.4" fill="#22c55e"/>
  <text x="116" y="116" font-family="Outfit,Segoe UI,sans-serif" font-size="12" fill="rgba(244,242,255,.72)">online · encrypted</text>
  <g transform="translate(292,86)" stroke="#f4f2ff" stroke-width="2" fill="none" stroke-linecap="round"><rect x="0" y="2" width="21" height="17" rx="4"/><path d="M21 8l10-5v15l-10-5z"/></g>
  <g transform="translate(342,86)" stroke="#f4f2ff" stroke-width="2" fill="none" stroke-linecap="round"><path d="M2 3c0 10 6 16 16 16l4-4-6-4-3 2c-3-2-5-4-6-7l2-3-4-6z"/></g>
  <text x="150" y="152" font-family="Outfit,Segoe UI,sans-serif" font-size="11.5" fill="rgba(244,242,255,.72)">— today —</text></g>
    <g><rect x="22" y="208" width="234" height="62" rx="22" fill="rgba(255,255,255,.16)" stroke="rgba(255,255,255,.3)" stroke-width="1.2"/><text x="37" y="234" font-family="Outfit,Segoe UI,sans-serif" font-size="14.5" fill="#f4f2ff">hey! you moved to</text><text x="37" y="254" font-family="Outfit,Segoe UI,sans-serif" font-size="14.5" fill="#f4f2ff">ChatSwift?</text></g><g><rect x="110" y="282" width="258" height="62" rx="22" fill="rgba(124,77,255,.55)" stroke="rgba(255,255,255,.4)" stroke-width="1.2"/><text x="125" y="308" font-family="Outfit,Segoe UI,sans-serif" font-size="14.5" fill="#ffffff">yep — no phone number</text><text x="125" y="328" font-family="Outfit,Segoe UI,sans-serif" font-size="14.5" fill="#ffffff">needed</text></g><g><rect x="22" y="356" width="258" height="62" rx="22" fill="rgba(255,255,255,.16)" stroke="rgba(255,255,255,.3)" stroke-width="1.2"/><text x="37" y="382" font-family="Outfit,Segoe UI,sans-serif" font-size="14.5" fill="#f4f2ff">wait so people just add a</text><text x="37" y="402" font-family="Outfit,Segoe UI,sans-serif" font-size="14.5" fill="#f4f2ff">username?</text></g><g><rect x="110" y="430" width="258" height="62" rx="22" fill="rgba(124,77,255,.55)" stroke="rgba(255,255,255,.4)" stroke-width="1.2"/><text x="125" y="456" font-family="Outfit,Segoe UI,sans-serif" font-size="14.5" fill="#ffffff">@yourname. that's the</text><text x="125" y="476" font-family="Outfit,Segoe UI,sans-serif" font-size="14.5" fill="#ffffff">whole identity.</text></g><g><rect x="104" y="504" width="264" height="46" rx="22" fill="rgba(124,77,255,.55)" stroke="rgba(255,255,255,.4)" stroke-width="1.2"/>
    <circle cx="130" cy="527" r="13" fill="#ffffff" opacity=".22"/>
    <path d="M126 520l10 7-10 7z" fill="#fff"/><rect x="152" y="525.0" width="3.4" rx="1.7" height="4.0" fill="#ffffff" opacity="1"/><rect x="159" y="518.6" width="3.4" rx="1.7" height="16.7" fill="#ffffff" opacity="1"/><rect x="166" y="514.2" width="3.4" rx="1.7" height="25.6" fill="#ffffff" opacity="1"/><rect x="173" y="515.8" width="3.4" rx="1.7" height="22.4" fill="#ffffff" opacity="1"/><rect x="180" y="522.6" width="3.4" rx="1.7" height="8.7" fill="#ffffff" opacity="1"/><rect x="187" y="522.4" width="3.4" rx="1.7" height="9.1" fill="#ffffff" opacity="1"/><rect x="194" y="515.7" width="3.4" rx="1.7" height="22.7" fill="#ffffff" opacity="1"/><rect x="201" y="514.2" width="3.4" rx="1.7" height="25.5" fill="#ffffff" opacity="1"/><rect x="208" y="518.8" width="3.4" rx="1.7" height="16.4" fill="#ffffff" opacity="1"/><rect x="215" y="525.0" width="3.4" rx="1.7" height="4.0" fill="#ffffff" opacity="1"/><rect x="222" y="518.5" width="3.4" rx="1.7" height="17.1" fill="#ffffff" opacity="1"/><rect x="229" y="514.2" width="3.4" rx="1.7" height="25.7" fill="#ffffff" opacity="1"/><rect x="236" y="515.9" width="3.4" rx="1.7" height="22.2" fill="#ffffff" opacity="1"/><rect x="243" y="522.9" width="3.4" rx="1.7" height="8.3" fill="#ffffff" opacity="1"/><rect x="250" y="522.2" width="3.4" rx="1.7" height="9.5" fill="#ffffff" opacity="1"/><rect x="257" y="515.6" width="3.4" rx="1.7" height="22.9" fill="#ffffff" opacity="0.45"/><rect x="264" y="514.3" width="3.4" rx="1.7" height="25.5" fill="#ffffff" opacity="0.45"/><rect x="271" y="519.0" width="3.4" rx="1.7" height="16.1" fill="#ffffff" opacity="0.45"/><rect x="278" y="525.0" width="3.4" rx="1.7" height="4.0" fill="#ffffff" opacity="0.45"/><rect x="285" y="518.3" width="3.4" rx="1.7" height="17.4" fill="#ffffff" opacity="0.45"/><rect x="292" y="514.1" width="3.4" rx="1.7" height="25.8" fill="#ffffff" opacity="0.45"/><rect x="299" y="516.0" width="3.4" rx="1.7" height="22.0" fill="#ffffff" opacity="0.45"/><rect x="306" y="523.1" width="3.4" rx="1.7" height="7.9" fill="#ffffff" opacity="0.45"/><rect x="313" y="522.0" width="3.4" rx="1.7" height="9.9" fill="#ffffff" opacity="0.45"/>
    <text x="356" y="531" text-anchor="end" font-family="Outfit,Segoe UI,sans-serif" font-size="10.5" fill="#ffffffcc">0:07</text></g><g><rect x="95" y="562" width="200" height="28" rx="14" fill="rgba(255,255,255,.13)" stroke="rgba(255,255,255,.28)" stroke-width="1"/>
    <g transform="translate(110,576)" stroke="#c9b6ff" stroke-width="1.5" fill="none" stroke-linecap="round">
      <circle cx="0" cy="0" r="6"/><path d="M0-3.4V.4l2.6 1.6"/></g>
    <text x="126" y="580" font-family="Outfit,Segoe UI,sans-serif" font-size="11.5" fill="rgba(244,242,255,.72)">auto-deletes in 24 hours</text></g>
    <g><rect x="18" y="770" width="288" height="52" rx="26" fill="rgba(255,255,255,.13)" stroke="rgba(255,255,255,.28)" stroke-width="1.2"/>
  <text x="44" y="802" font-family="Outfit,Segoe UI,sans-serif" font-size="14.5" fill="rgba(244,242,255,.72)">Message @ayesha</text>
  <circle cx="344" cy="796" r="26" fill="#c9b6ff"/>
  <path d="M334 788l14 8-14 8 3-8z" fill="#0a0a12"/></g>
    
  </g><g><rect x="0" y="0" width="0" height="0"/></g>
</svg>