<svg xmlns="http://www.w3.org/2000/svg" viewBox="0 0 390 844" width="390" height="844" role="img" aria-label="Seffni Hyper 3D design preview">
  <defs>
    <filter id="soft" x="-50%" y="-50%" width="200%" height="200%"><feGaussianBlur stdDeviation="55"/></filter>
    <filter id="dp" x="-30%" y="-30%" width="180%" height="180%"><feDropShadow dx="0" dy="6" stdDeviation="0" flood-color="#00000066"/></filter><linearGradient id="hyperGrad" x1="0" y1="0" x2="1" y2="1"><stop offset="0" stop-color="#ff2fb3"/><stop offset="1" stop-color="#7c4dff"/></linearGradient>
    <clipPath id="scr"><rect width="390" height="844" rx="0"/></clipPath>
  </defs>
  <g clip-path="url(#scr)">
    <rect width="390" height="844" fill="#12082e"/><g filter="url(#soft)"><ellipse cx="60" cy="120" rx="180" ry="150" fill="#ff2fb3" opacity=".55"/><ellipse cx="340" cy="640" rx="190" ry="170" fill="#00e0ff" opacity=".45"/><ellipse cx="200" cy="420" rx="150" ry="130" fill="#ffb300" opacity=".28"/></g>
    <g filter="url(#dp)"><rect x="0" y="0" width="390" height="176" rx="0" fill="rgba(28,12,64,.82)" opacity=".97"/>
  <rect x="0" y="175" width="390" height="1" fill="rgba(255,255,255,.22)"/>
  <text x="24" y="46" font-family="Outfit,Segoe UI,sans-serif" font-size="12.5" fill="rgba(255,255,255,.75)">9:41</text>
  <g transform="translate(300,36)" fill="rgba(255,255,255,.75)"><rect x="0" y="4" width="3" height="7" rx="1"/><rect x="5" y="1" width="3" height="10" rx="1"/><rect x="10" y="-2" width="3" height="13" rx="1"/>
   <path d="M22 2a9 9 0 0 1 12 0" stroke="rgba(255,255,255,.75)" stroke-width="2" fill="none" stroke-linecap="round"/><circle cx="28" cy="8" r="2"/>
   <rect x="44" y="0" width="20" height="11" rx="3" stroke="rgba(255,255,255,.75)" stroke-width="1.5" fill="none"/><rect x="46" y="2.5" width="13" height="6" rx="1.5"/></g>
  <path d="M32 108l-11-11 11-11" stroke="#ffffff" stroke-width="2.2" fill="none" stroke-linecap="round" stroke-linejoin="round"/>
  <circle cx="70" cy="97" r="21" fill="#ffd166" opacity=".9"/>
  <text x="70" y="103" text-anchor="middle" font-family="Outfit,Segoe UI,sans-serif" font-size="17" font-weight="700" fill="#0a0a12">A</text>
  <text x="102" y="93" font-family="Outfit,Segoe UI,sans-serif" font-size="16.5" font-weight="600" fill="#ffffff">@ayesha</text>
  <circle cx="107" cy="112" r="3.4" fill="#22c55e"/>
  <text x="116" y="116" font-family="Outfit,Segoe UI,sans-serif" font-size="12" fill="rgba(255,255,255,.75)">online · encrypted</text>
  <g transform="translate(292,86)" stroke="#ffffff" stroke-width="2" fill="none" stroke-linecap="round"><rect x="0" y="2" width="21" height="17" rx="4"/><path d="M21 8l10-5v15l-10-5z"/></g>
  <g transform="translate(342,86)" stroke="#ffffff" stroke-width="2" fill="none" stroke-linecap="round"><path d="M2 3c0 10 6 16 16 16l4-4-6-4-3 2c-3-2-5-4-6-7l2-3-4-6z"/></g>
  <text x="150" y="152" font-family="Outfit,Segoe UI,sans-serif" font-size="11.5" fill="rgba(255,255,255,.75)">— today —</text></g>
    <g filter="url(#dp)"><rect x="22" y="208" width="234" height="62" rx="26" fill="#241357" stroke="rgba(255,255,255,.25)" stroke-width="1.2"/><text x="37" y="234" font-family="Outfit,Segoe UI,sans-serif" font-size="14.5" fill="#ffffff">hey! you moved to</text><text x="37" y="254" font-family="Outfit,Segoe UI,sans-serif" font-size="14.5" fill="#ffffff">Seffni?</text></g><g filter="url(#dp)"><rect x="110" y="282" width="258" height="62" rx="26" fill="url(#hyperGrad)" stroke="rgba(255,255,255,.5)" stroke-width="1.2"/><text x="125" y="308" font-family="Outfit,Segoe UI,sans-serif" font-size="14.5" fill="#ffffff">yep — no phone number</text><text x="125" y="328" font-family="Outfit,Segoe UI,sans-serif" font-size="14.5" fill="#ffffff">needed</text></g><g filter="url(#dp)"><rect x="22" y="356" width="258" height="62" rx="26" fill="#241357" stroke="rgba(255,255,255,.25)" stroke-width="1.2"/><text x="37" y="382" font-family="Outfit,Segoe UI,sans-serif" font-size="14.5" fill="#ffffff">wait so people just add a</text><text x="37" y="402" font-family="Outfit,Segoe UI,sans-serif" font-size="14.5" fill="#ffffff">username?</text></g><g filter="url(#dp)"><rect x="110" y="430" width="258" height="62" rx="26" fill="url(#hyperGrad)" stroke="rgba(255,255,255,.5)" stroke-width="1.2"/><text x="125" y="456" font-family="Outfit,Segoe UI,sans-serif" font-size="14.5" fill="#ffffff">@yourname. that's the</text><text x="125" y="476" font-family="Outfit,Segoe UI,sans-serif" font-size="14.5" fill="#ffffff">whole identity.</text></g><g filter="url(#dp)"><rect x="104" y="504" width="264" height="46" rx="26" fill="url(#hyperGrad)" stroke="rgba(255,255,255,.5)" stroke-width="1.2"/>
    <circle cx="130" cy="527" r="13" fill="#ffffff" opacity=".22"/>
    <path d="M126 520l10 7-10 7z" fill="#fff"/><rect x="152" y="525.0" width="3.4" rx="1.7" height="4.0" fill="#ffffff" opacity="1"/><rect x="159" y="518.6" width="3.4" rx="1.7" height="16.7" fill="#ffffff" opacity="1"/><rect x="166" y="514.2" width="3.4" rx="1.7" height="25.6" fill="#ffffff" opacity="1"/><rect x="173" y="515.8" width="3.4" rx="1.7" height="22.4" fill="#ffffff" opacity="1"/><rect x="180" y="522.6" width="3.4" rx="1.7" height="8.7" fill="#ffffff" opacity="1"/><rect x="187" y="522.4" width="3.4" rx="1.7" height="9.1" fill="#ffffff" opacity="1"/><rect x="194" y="515.7" width="3.4" rx="1.7" height="22.7" fill="#ffffff" opacity="1"/><rect x="201" y="514.2" width="3.4" rx="1.7" height="25.5" fill="#ffffff" opacity="1"/><rect x="208" y="518.8" width="3.4" rx="1.7" height="16.4" fill="#ffffff" opacity="1"/><rect x="215" y="525.0" width="3.4" rx="1.7" height="4.0" fill="#ffffff" opacity="1"/><rect x="222" y="518.5" width="3.4" rx="1.7" height="17.1" fill="#ffffff" opacity="1"/><rect x="229" y="514.2" width="3.4" rx="1.7" height="25.7" fill="#ffffff" opacity="1"/><rect x="236" y="515.9" width="3.4" rx="1.7" height="22.2" fill="#ffffff" opacity="1"/><rect x="243" y="522.9" width="3.4" rx="1.7" height="8.3" fill="#ffffff" opacity="1"/><rect x="250" y="522.2" width="3.4" rx="1.7" height="9.5" fill="#ffffff" opacity="1"/><rect x="257" y="515.6" width="3.4" rx="1.7" height="22.9" fill="#ffffff" opacity="0.45"/><rect x="264" y="514.3" width="3.4" rx="1.7" height="25.5" fill="#ffffff" opacity="0.45"/><rect x="271" y="519.0" width="3.4" rx="1.7" height="16.1" fill="#ffffff" opacity="0.45"/><rect x="278" y="525.0" width="3.4" rx="1.7" height="4.0" fill="#ffffff" opacity="0.45"/><rect x="285" y="518.3" width="3.4" rx="1.7" height="17.4" fill="#ffffff" opacity="0.45"/><rect x="292" y="514.1" width="3.4" rx="1.7" height="25.8" fill="#ffffff" opacity="0.45"/><rect x="299" y="516.0" width="3.4" rx="1.7" height="22.0" fill="#ffffff" opacity="0.45"/><rect x="306" y="523.1" width="3.4" rx="1.7" height="7.9" fill="#ffffff" opacity="0.45"/><rect x="313" y="522.0" width="3.4" rx="1.7" height="9.9" fill="#ffffff" opacity="0.45"/>
    <text x="356" y="531" text-anchor="end" font-family="Outfit,Segoe UI,sans-serif" font-size="10.5" fill="#ffffffcc">0:07</text></g><g><rect x="95" y="562" width="200" height="28" rx="14" fill="rgba(28,12,64,.82)" stroke="rgba(255,255,255,.22)" stroke-width="1"/>
    <g transform="translate(110,576)" stroke="#ffd166" stroke-width="1.5" fill="none" stroke-linecap="round">
      <circle cx="0" cy="0" r="6"/><path d="M0-3.4V.4l2.6 1.6"/></g>
    <text x="126" y="580" font-family="Outfit,Segoe UI,sans-serif" font-size="11.5" fill="rgba(255,255,255,.75)">auto-deletes in 24 hours</text></g>
    <g filter="url(#dp)"><rect x="18" y="770" width="288" height="52" rx="26" fill="rgba(28,12,64,.82)" stroke="rgba(255,255,255,.22)" stroke-width="1.2"/>
  <text x="44" y="802" font-family="Outfit,Segoe UI,sans-serif" font-size="14.5" fill="rgba(255,255,255,.75)">Message @ayesha</text>
  <circle cx="344" cy="796" r="26" fill="#ffd166"/>
  <path d="M334 788l14 8-14 8 3-8z" fill="#0a0a12"/></g>
    
  </g><g><rect x="0" y="0" width="0" height="0"/></g>
</svg>